<mxfile host="app.diagrams.net" agent="Mozilla/5.0 (Windows NT 10.0; Win64; x64) AppleWebKit/537.36 (KHTML, like Gecko) Chrome/140.0.0.0 Safari/537.36" version="28.2.5">
  <diagram name="Página-1" id="YWYwoeP4mRuZ2OBto-2d">
    <mxGraphModel dx="1426" dy="779" grid="1" gridSize="10" guides="1" tooltips="1" connect="1" arrows="1" fold="1" page="1" pageScale="1" pageWidth="827" pageHeight="1169" background="#FAFFF8" math="0" shadow="1">
      <root>
        <mxCell id="0" />
        <mxCell id="1" parent="0" />
        <mxCell id="iXQOqkEJHEQZhRmElkRe-3" value="" style="edgeStyle=orthogonalEdgeStyle;rounded=0;orthogonalLoop=1;jettySize=auto;html=1;" edge="1" parent="1" source="ZH_kPXTmaQF38pL4gd3C-1" target="06Gke2DZnT_ywNwkVbvP-21">
          <mxGeometry relative="1" as="geometry" />
        </mxCell>
        <mxCell id="ZH_kPXTmaQF38pL4gd3C-1" value="Inicio" style="ellipse;whiteSpace=wrap;html=1;fillColor=#f8cecc;strokeColor=#b85450;strokeWidth=4;shadow=1;" parent="1" vertex="1">
          <mxGeometry x="610" y="242" width="120" height="80" as="geometry" />
        </mxCell>
        <mxCell id="06Gke2DZnT_ywNwkVbvP-42" value="" style="edgeStyle=orthogonalEdgeStyle;rounded=0;orthogonalLoop=1;jettySize=auto;html=1;" parent="1" source="06Gke2DZnT_ywNwkVbvP-21" target="06Gke2DZnT_ywNwkVbvP-41" edge="1">
          <mxGeometry relative="1" as="geometry" />
        </mxCell>
        <mxCell id="06Gke2DZnT_ywNwkVbvP-21" value="ESCREVER &quot;Qual numero queres determinar se e negativo ou positivo?&quot;" style="shape=parallelogram;perimeter=parallelogramPerimeter;whiteSpace=wrap;html=1;fixedSize=1;fillColor=#dae8fc;strokeColor=#6c8ebf;strokeWidth=4;shadow=1;" parent="1" vertex="1">
          <mxGeometry x="330" y="218" width="230" height="128" as="geometry" />
        </mxCell>
        <mxCell id="iXQOqkEJHEQZhRmElkRe-5" value="" style="edgeStyle=orthogonalEdgeStyle;rounded=0;orthogonalLoop=1;jettySize=auto;html=1;" edge="1" parent="1" source="06Gke2DZnT_ywNwkVbvP-41" target="iXQOqkEJHEQZhRmElkRe-4">
          <mxGeometry relative="1" as="geometry">
            <Array as="points">
              <mxPoint x="185" y="456" />
            </Array>
          </mxGeometry>
        </mxCell>
        <mxCell id="06Gke2DZnT_ywNwkVbvP-41" value="LER Num" style="shape=parallelogram;perimeter=parallelogramPerimeter;whiteSpace=wrap;html=1;fixedSize=1;fillColor=#e1d5e7;strokeColor=#9673a6;strokeWidth=4;shadow=1;" parent="1" vertex="1">
          <mxGeometry x="125" y="252" width="120" height="60" as="geometry" />
        </mxCell>
        <mxCell id="iXQOqkEJHEQZhRmElkRe-8" value="" style="edgeStyle=orthogonalEdgeStyle;rounded=0;orthogonalLoop=1;jettySize=auto;html=1;" edge="1" parent="1" source="iXQOqkEJHEQZhRmElkRe-4" target="iXQOqkEJHEQZhRmElkRe-7">
          <mxGeometry relative="1" as="geometry" />
        </mxCell>
        <mxCell id="iXQOqkEJHEQZhRmElkRe-9" value="Sim" style="edgeLabel;html=1;align=center;verticalAlign=middle;resizable=0;points=[];" vertex="1" connectable="0" parent="iXQOqkEJHEQZhRmElkRe-8">
          <mxGeometry x="-0.3617" y="-1" relative="1" as="geometry">
            <mxPoint as="offset" />
          </mxGeometry>
        </mxCell>
        <mxCell id="iXQOqkEJHEQZhRmElkRe-11" value="" style="edgeStyle=orthogonalEdgeStyle;rounded=0;orthogonalLoop=1;jettySize=auto;html=1;" edge="1" parent="1" source="iXQOqkEJHEQZhRmElkRe-4" target="iXQOqkEJHEQZhRmElkRe-10">
          <mxGeometry relative="1" as="geometry" />
        </mxCell>
        <mxCell id="iXQOqkEJHEQZhRmElkRe-12" value="Não" style="edgeLabel;html=1;align=center;verticalAlign=middle;resizable=0;points=[];" vertex="1" connectable="0" parent="iXQOqkEJHEQZhRmElkRe-11">
          <mxGeometry x="-0.225" relative="1" as="geometry">
            <mxPoint as="offset" />
          </mxGeometry>
        </mxCell>
        <mxCell id="iXQOqkEJHEQZhRmElkRe-4" value="Num=0" style="rhombus;whiteSpace=wrap;html=1;fillColor=#ffe6cc;strokeColor=#d79b00;strokeWidth=4;shadow=1;" vertex="1" parent="1">
          <mxGeometry x="97.5" y="350" width="175" height="168" as="geometry" />
        </mxCell>
        <mxCell id="iXQOqkEJHEQZhRmElkRe-6" style="edgeStyle=orthogonalEdgeStyle;rounded=0;orthogonalLoop=1;jettySize=auto;html=1;exitX=0.5;exitY=1;exitDx=0;exitDy=0;" edge="1" parent="1" source="iXQOqkEJHEQZhRmElkRe-4" target="iXQOqkEJHEQZhRmElkRe-4">
          <mxGeometry relative="1" as="geometry" />
        </mxCell>
        <mxCell id="iXQOqkEJHEQZhRmElkRe-31" style="edgeStyle=orthogonalEdgeStyle;rounded=0;orthogonalLoop=1;jettySize=auto;html=1;entryX=0.5;entryY=0;entryDx=0;entryDy=0;" edge="1" parent="1" source="iXQOqkEJHEQZhRmElkRe-7" target="iXQOqkEJHEQZhRmElkRe-32">
          <mxGeometry relative="1" as="geometry">
            <mxPoint x="680" y="500" as="targetPoint" />
          </mxGeometry>
        </mxCell>
        <mxCell id="iXQOqkEJHEQZhRmElkRe-7" value="ESCREVER&amp;nbsp;“Digitou 0 - vai sair do programa”" style="shape=parallelogram;perimeter=parallelogramPerimeter;whiteSpace=wrap;html=1;fixedSize=1;fillColor=#dae8fc;strokeColor=#6c8ebf;strokeWidth=4;shadow=1;" vertex="1" parent="1">
          <mxGeometry x="335" y="381" width="240" height="106" as="geometry" />
        </mxCell>
        <mxCell id="iXQOqkEJHEQZhRmElkRe-14" value="" style="edgeStyle=orthogonalEdgeStyle;rounded=0;orthogonalLoop=1;jettySize=auto;html=1;" edge="1" parent="1" source="iXQOqkEJHEQZhRmElkRe-10" target="iXQOqkEJHEQZhRmElkRe-13">
          <mxGeometry relative="1" as="geometry">
            <Array as="points">
              <mxPoint x="320" y="682" />
              <mxPoint x="320" y="682" />
            </Array>
          </mxGeometry>
        </mxCell>
        <mxCell id="iXQOqkEJHEQZhRmElkRe-33" value="Sim" style="edgeLabel;html=1;align=center;verticalAlign=middle;resizable=0;points=[];" vertex="1" connectable="0" parent="iXQOqkEJHEQZhRmElkRe-14">
          <mxGeometry x="0.0162" y="2" relative="1" as="geometry">
            <mxPoint x="1" as="offset" />
          </mxGeometry>
        </mxCell>
        <mxCell id="iXQOqkEJHEQZhRmElkRe-24" style="edgeStyle=orthogonalEdgeStyle;rounded=0;orthogonalLoop=1;jettySize=auto;html=1;entryX=0;entryY=0.5;entryDx=0;entryDy=0;" edge="1" parent="1" source="iXQOqkEJHEQZhRmElkRe-10" target="iXQOqkEJHEQZhRmElkRe-23">
          <mxGeometry relative="1" as="geometry">
            <Array as="points">
              <mxPoint x="280" y="682" />
              <mxPoint x="280" y="770" />
            </Array>
          </mxGeometry>
        </mxCell>
        <mxCell id="iXQOqkEJHEQZhRmElkRe-25" value="Não" style="edgeLabel;html=1;align=center;verticalAlign=middle;resizable=0;points=[];" vertex="1" connectable="0" parent="iXQOqkEJHEQZhRmElkRe-24">
          <mxGeometry x="0.5498" relative="1" as="geometry">
            <mxPoint x="1" as="offset" />
          </mxGeometry>
        </mxCell>
        <mxCell id="iXQOqkEJHEQZhRmElkRe-10" value="Num&amp;gt;0" style="rhombus;whiteSpace=wrap;html=1;fillColor=#ffe6cc;strokeColor=#d79b00;strokeWidth=4;shadow=1;" vertex="1" parent="1">
          <mxGeometry x="97.5" y="598" width="175" height="168" as="geometry" />
        </mxCell>
        <mxCell id="iXQOqkEJHEQZhRmElkRe-30" style="edgeStyle=orthogonalEdgeStyle;rounded=0;orthogonalLoop=1;jettySize=auto;html=1;endArrow=none;endFill=0;" edge="1" parent="1" source="iXQOqkEJHEQZhRmElkRe-13">
          <mxGeometry relative="1" as="geometry">
            <mxPoint x="440" y="850" as="targetPoint" />
            <Array as="points">
              <mxPoint x="610" y="680" />
              <mxPoint x="610" y="850" />
            </Array>
          </mxGeometry>
        </mxCell>
        <mxCell id="iXQOqkEJHEQZhRmElkRe-13" value="ESCREVER &quot;O numero digitado e positivo&quot;" style="shape=parallelogram;perimeter=parallelogramPerimeter;whiteSpace=wrap;html=1;fixedSize=1;fillColor=#dae8fc;strokeColor=#6c8ebf;strokeWidth=4;shadow=1;" vertex="1" parent="1">
          <mxGeometry x="335" y="650" width="225" height="60" as="geometry" />
        </mxCell>
        <mxCell id="iXQOqkEJHEQZhRmElkRe-29" style="edgeStyle=orthogonalEdgeStyle;rounded=0;orthogonalLoop=1;jettySize=auto;html=1;startSize=9;shadow=0;entryX=0;entryY=0.5;entryDx=0;entryDy=0;" edge="1" parent="1" source="iXQOqkEJHEQZhRmElkRe-23" target="06Gke2DZnT_ywNwkVbvP-41">
          <mxGeometry relative="1" as="geometry">
            <mxPoint x="110" y="320" as="targetPoint" />
            <Array as="points">
              <mxPoint x="443" y="850" />
              <mxPoint x="40" y="850" />
              <mxPoint x="40" y="282" />
            </Array>
          </mxGeometry>
        </mxCell>
        <mxCell id="iXQOqkEJHEQZhRmElkRe-23" value="ESCREVER &quot;O numero digitado e negativo&quot;" style="shape=parallelogram;perimeter=parallelogramPerimeter;whiteSpace=wrap;html=1;fixedSize=1;fillColor=#dae8fc;strokeColor=#6c8ebf;strokeWidth=4;shadow=1;" vertex="1" parent="1">
          <mxGeometry x="330" y="740" width="225" height="60" as="geometry" />
        </mxCell>
        <mxCell id="iXQOqkEJHEQZhRmElkRe-32" value="Fim" style="ellipse;whiteSpace=wrap;html=1;aspect=fixed;fillColor=#d5e8d4;strokeColor=#82b366;strokeWidth=4;" vertex="1" parent="1">
          <mxGeometry x="640" y="500" width="80" height="80" as="geometry" />
        </mxCell>
      </root>
    </mxGraphModel>
  </diagram>
</mxfile>
